<svg xmlns="http://www.w3.org/2000/svg" viewBox="0 0 200 200">
  <defs>
    <style>
      .cls-1 {
        fill: #3c37ff;
      }
    </style>
  </defs>
  <path class="cls-1" d="M66.36,47.67h26.61v104.66h-26.61v-40.22h-29.45v40.22H10.14V47.67h26.76v38.72h29.45V47.67Z"/>
  <path class="cls-1" d="M161.15,152.33l-18.24-33.79h-9.57v33.79h-26.76V47.67h41.86c10.66,0,19.61,3.42,26.84,10.24,7.23,6.83,10.84,15.47,10.84,25.94,0,6.28-1.6,12.04-4.78,17.27-3.19,5.23-7.53,9.4-13.01,12.48l21.53,38.72h-28.71Zm-27.81-79.99v23.47h14.8c3.29,.1,5.98-.95,8.07-3.14,2.09-2.19,3.14-5.03,3.14-8.52s-1.05-6.33-3.14-8.52c-2.09-2.19-4.78-3.29-8.07-3.29h-14.8Z"/>
</svg>